<svg width="23" height="23" viewBox="0 0 23 23" fill="none" xmlns="http://www.w3.org/2000/svg">
<path d="M7.86879 14.79C7.86862 14.6939 7.88741 14.5988 7.92408 14.5101C7.96075 14.4213 8.01459 14.3407 8.08249 14.2728C8.15039 14.2049 8.23103 14.151 8.31978 14.1144C8.40854 14.0777 8.50366 14.0589 8.59969 14.0591L13.0272 14.0591L6.70708 7.73893C6.57025 7.6021 6.49338 7.41651 6.49338 7.223C6.49338 7.02949 6.57025 6.84391 6.70708 6.70707C6.84392 6.57024 7.0295 6.49337 7.22301 6.49337C7.41653 6.49337 7.60211 6.57024 7.73894 6.70707L14.0591 13.0272L14.0599 8.59881C14.0599 8.40497 14.1369 8.21906 14.274 8.08199C14.4111 7.94492 14.597 7.86791 14.7908 7.86791C14.9847 7.86791 15.1706 7.94492 15.3077 8.08199C15.4447 8.21906 15.5217 8.40497 15.5217 8.59881L15.5217 14.79C15.5219 14.886 15.5031 14.9811 15.4664 15.0699C15.4298 15.1586 15.3759 15.2393 15.308 15.3072C15.2401 15.3751 15.1595 15.4289 15.0707 15.4656C14.982 15.5022 14.8869 15.521 14.7908 15.5209L8.59969 15.5209C8.50366 15.521 8.40854 15.5022 8.31978 15.4656C8.23103 15.4289 8.15039 15.3751 8.08249 15.3072C8.01459 15.2393 7.96075 15.1586 7.92408 15.0699C7.88741 14.9811 7.86862 14.886 7.86879 14.79Z" fill="#EE7C85"/>
</svg>
