<svg width="23" height="23" viewBox="0 0 23 23" fill="none" xmlns="http://www.w3.org/2000/svg">
<path d="M14.79 14.1442C14.6939 14.1444 14.5988 14.1256 14.5101 14.0889C14.4213 14.0522 14.3407 13.9984 14.2728 13.9305C14.2049 13.8626 14.151 13.782 14.1144 13.6932C14.0777 13.6045 14.0589 13.5093 14.0591 13.4133L14.0591 8.98578L7.73893 15.3059C7.6021 15.4427 7.41651 15.5196 7.223 15.5196C7.02949 15.5196 6.84391 15.4427 6.70707 15.3059C6.57024 15.1691 6.49337 14.9835 6.49337 14.79C6.49337 14.5965 6.57024 14.4109 6.70707 14.2741L13.0272 7.95392L8.59881 7.95306C8.40497 7.95306 8.21906 7.87605 8.08199 7.73898C7.94492 7.60191 7.86791 7.416 7.86791 7.22216C7.86791 7.02831 7.94492 6.8424 8.08199 6.70533C8.21906 6.56826 8.40497 6.49126 8.59881 6.49126L14.79 6.49126C14.886 6.49109 14.9811 6.50988 15.0699 6.54656C15.1586 6.58323 15.2393 6.63706 15.3072 6.70496C15.3751 6.77287 15.4289 6.85351 15.4656 6.94226C15.5022 7.03101 15.521 7.12613 15.5209 7.22216L15.5209 13.4133C15.521 13.5093 15.5022 13.6045 15.4656 13.6932C15.4289 13.782 15.3751 13.8626 15.3072 13.9305C15.2393 13.9984 15.1586 14.0522 15.0699 14.0889C14.9811 14.1256 14.886 14.1444 14.79 14.1442Z" fill="#4CBF93"/>
</svg>
