<svg width="18" height="18" viewBox="0 0 18 18" fill="none" xmlns="http://www.w3.org/2000/svg">
<path d="M15.6667 1H2.33333C1.97971 1 1.64057 1.14048 1.39052 1.39052C1.14048 1.64057 1 1.97971 1 2.33333V15.6667C1 16.0203 1.14048 16.3594 1.39052 16.6095C1.64057 16.8595 1.97971 17 2.33333 17H15.6667C16.0203 17 16.3594 16.8595 16.6095 16.6095C16.8595 16.3594 17 16.0203 17 15.6667V2.33333C17 1.97971 16.8595 1.64057 16.6095 1.39052C16.3594 1.14048 16.0203 1 15.6667 1Z" stroke="#424242" stroke-width="2" stroke-linejoin="round"/>
<path d="M4.30664 11.5933L6.82086 9.07912L8.77109 11.0245L13.4444 6.33334" stroke="#424242" stroke-width="2" stroke-linecap="round" stroke-linejoin="round"/>
<path d="M9.88892 6.33334H13.4445V9.8889" stroke="#424242" stroke-width="2" stroke-linecap="round" stroke-linejoin="round"/>
</svg>
